<svg aria-hidden="true" style="width:0;height:0;position:absolute;overflow:hidden" xmlns="http://www.w3.org/2000/svg"><defs><symbol id="icon-email" viewBox="0 0 32 32"><path d="m21.217 15.123 10.342-8.585v20.679zM.518 5.447h30.964L16 18.21zM15.996 19.46l4.54-3.762 9.867 11.529H1.597l9.865-11.416zM.399 27.217V6.538l10.344 8.585z"/></symbol><symbol id="icon-telephone" viewBox="0 0 32 32"><path d="M12.215 10.541c-1.21.713-.63 2.317.09 3.885.013.077 3.494 5.915 3.525 5.935 1.8 2.429 2.775 3.548 3.932 2.868l4.897 8.25c-1.386.852-8.297 1.375-15.56-11.208C2.205 8.331 5.887 3.061 7.189 2.09zm15.427 19.202c.003.003-2.342 1.377-2.342 1.377l-4.909-8.271 2.342-1.381a1.07 1.07 0 0 1 1.46.368l.003.005 3.826 6.429-.001.006a1.061 1.061 0 0 1-.369 1.461l-.005.003zM15.199 8.788c-.001.004-2.342 1.376-2.342 1.376L7.836 1.71 10.178.328a1.069 1.069 0 0 1 1.46.369l.003.005 3.937 6.615-.001.008a1.062 1.062 0 0 1-.372 1.457l-.005.003z"/></symbol><symbol id="icon-vv" viewBox="0 0 32 32"><path d="M15.932 0c7.026 0 11.744 5.056 11.744 11.295C27.676 17.531 15.85 32 15.85 32S4.155 17.561 4.155 11.323C4.155 5.084 8.905 0 15.932 0zm-3.915 9.41c0 2.079 1.754 3.765 3.916 3.765s3.915-1.687 3.915-3.765-1.754-3.764-3.915-3.764c-2.163 0-3.916 1.685-3.916 3.764z"/></symbol><symbol id="icon-layers" viewBox="0 0 32 32"><path d="M15.832 10.105h.337v1.516h-.337zm0 10.274h.337v1.516h-.337zm-5.727-4.211v-.337h1.516v.337zm10.274 0v-.337h1.516v.337z"/><path stroke-width="1.01" stroke-miterlimit="20" d="M15.832 10.105h.337v1.516h-.337zm0 10.274h.337v1.516h-.337zm-5.727-4.211v-.337h1.516v.337zm10.274 0v-.337h1.516v.337z"/><path d="M12.968 16.168v-.337h2.863v-3.874h.337v4.211z"/><path stroke-width="1.01" stroke-miterlimit="20" d="M12.968 16.168v-.337h2.863v-3.874h.337v4.211z"/><path d="M16.004 15.411a.589.589 0 1 1 0 1.178.589.589 0 1 1 0-1.178z"/><path stroke-width="1.01" stroke-miterlimit="20" d="M16.004 15.411a.589.589 0 1 1 0 1.178.589.589 0 1 1 0-1.178z"/></symbol><symbol id="icon-Group_2" viewBox="0 0 32 32"><path stroke-width="1.067" stroke-miterlimit="20" d="m17.8 11.188 3.167 3.147c.225.223.364.532.364.874s-.139.651-.364.874l-4.838 4.808a1.236 1.236 0 0 1-.631.338l-.008.001a1.222 1.222 0 0 1-.498.104h-.015l-3.016-.028a1.28 1.28 0 0 1-1.268-1.26l-.028-2.998v-.015c0-.387.18-.732.462-.955l.002-.002c.023-.027.048-.054.073-.079l4.838-4.808c.226-.224.537-.362.88-.362s.654.138.88.362zm-5.373 7.082a.861.861 0 0 0 0 1.224.875.875 0 0 0 1.232 0 .861.861 0 0 0 0-1.224.875.875 0 0 0-1.232 0z"/><path stroke-width="1.067" stroke-miterlimit="20" d="M13.372 19.97s-1.99-1.793-1.99-5.563.871-4.451 1.244-4.451 1.057.742 1.12 3.833"/></symbol><symbol id="icon-layers1" viewBox="0 0 32 32"><path d="M15.171 16.872h.373v6.63h-.373z"/><path stroke-width="1.085" stroke-miterlimit="20" d="M14.539 14.759c.118.116.208.259.261.419l.002.007c.143-.075.312-.119.492-.119h.002c.178 0 .345.043.492.118a1.064 1.064 0 0 1 .689-.685l.008-.002a1.026 1.026 0 0 1-.121-.486v-.001c0-.174.043-.338.119-.483a1.065 1.065 0 0 1-.43-.259 1.053 1.053 0 0 1-.262-.421l-.002-.007a1.068 1.068 0 0 1-.49.118h-.004a1.07 1.07 0 0 1-.498-.122l.006.003a1.055 1.055 0 0 1-.69.684l-.008.002a1.042 1.042 0 0 1-.001.974c.171.054.318.143.437.261zm-1.514-2.986a1.08 1.08 0 0 1 1.25-.19c.137-.426.542-.735 1.02-.735s.884.31 1.021.737a1.082 1.082 0 0 1 1.249.191 1.044 1.044 0 0 1 .192 1.235l.003-.006c.431.136.744.534.744 1.005s-.313.87-.746 1.005a1.044 1.044 0 0 1-.193 1.233 1.081 1.081 0 0 1-1.248.191c-.137.427-.542.737-1.021.737s-.882-.309-1.02-.735a1.082 1.082 0 0 1-1.251-.19 1.04 1.04 0 0 1-.189-1.24l-.003.006c-.434-.134-.75-.534-.75-1.007s.314-.871.748-1.006a1.044 1.044 0 0 1 .194-1.231z"/><path stroke-width="1.085" stroke-miterlimit="20" d="M15.293 12.112c1.063 0 1.925.85 1.925 1.898s-.862 1.899-1.925 1.899-1.925-.85-1.925-1.899.862-1.899 1.925-1.899zM15.452 21.097l-.189-.189 2.521-2.5.189.189z"/><path stroke-width="1.085" stroke-miterlimit="20" d="m15.481 20.812-.189.315-3.152-3.125.189-.315zM20.429 16.262s-.178 2.607-.947 3.37c-.769.763-1.942.837-2.619.166s-.602-1.833.167-2.596c.769-.763 3.399-.939 3.399-.939z"/><path stroke-width="1.085" stroke-miterlimit="20" d="M11.57 17.428s.13 1.9.694 2.456 1.422.61 1.918.121.441-1.336-.122-1.892-2.489-.684-2.489-.684z"/></symbol><symbol id="icon-leaf" viewBox="0 0 32 32"><path fill="#fff" stroke-width="1.061" stroke-miterlimit="20" d="M12.161 19.579a4.406 4.406 0 0 1 0-6.23c2.738-2.74 8.966-2.741 8.966-2.741s-.001 6.231-2.74 8.972a4.402 4.402 0 0 1-6.227 0z"/><path fill="#fff" stroke-width="1.061" stroke-miterlimit="20" d="M11.392 22.559s-1.04-8.342 9.605-11.821"/><path fill="#fff" stroke-width="1.061" stroke-miterlimit="20" d="M12.431 18.272v-.13h-.26v-3.377h.26v3.248h5.062v.26zm1.557-2.858v-.13h-.13v-2.468h.26v2.338h4.413v.26zm2.856-2.338v-.13h-.13v-1.169h.26v1.039H19.7v.26z"/></symbol></defs></svg>