<svg aria-hidden="true" style="position: absolute; width: 0; height: 0; overflow: hidden;" version="1.1" xmlns="http://www.w3.org/2000/svg" xmlns:xlink="http://www.w3.org/1999/xlink">
<defs>
<symbol id="icon-email" viewBox="0 0 32 32">
<path d="M21.217 15.123l10.342-8.585v20.679zM0.518 5.447h30.964l-15.482 12.763zM15.996 19.46l4.54-3.762 9.867 11.529h-28.806l9.865-11.416zM0.399 27.217v-20.679l10.344 8.585z"></path>
</symbol>
<symbol id="icon-telephone" viewBox="0 0 32 32">
<path d="M12.215 10.541c-1.21 0.713-0.63 2.317 0.090 3.885 0.013 0.077 3.494 5.915 3.525 5.935 1.8 2.429 2.775 3.548 3.932 2.868l4.897 8.25c-1.386 0.852-8.297 1.375-15.56-11.208-6.894-11.94-3.212-17.21-1.91-18.181zM27.642 29.743c0.003 0.003-2.342 1.377-2.342 1.377l-4.909-8.271 2.342-1.381c0.156-0.093 0.344-0.149 0.544-0.149 0.388 0 0.728 0.207 0.916 0.517l0.003 0.005 3.826 6.429-0.001 0.006c0.095 0.156 0.152 0.345 0.152 0.547 0 0.389-0.209 0.729-0.521 0.914l-0.005 0.003zM15.199 8.788c-0.001 0.004-2.342 1.376-2.342 1.376l-5.021-8.454 2.342-1.382c0.156-0.094 0.344-0.149 0.544-0.149 0.389 0 0.729 0.208 0.916 0.518l0.003 0.005 3.937 6.615-0.001 0.008c0.094 0.155 0.15 0.343 0.15 0.543 0 0.389-0.21 0.729-0.522 0.914l-0.005 0.003z"></path>
</symbol>
<symbol id="icon-vv" viewBox="0 0 32 32">
<path d="M15.932 0c7.026 0 11.744 5.056 11.744 11.295 0 6.236-11.826 20.705-11.826 20.705s-11.695-14.439-11.695-20.677c0-6.239 4.75-11.323 11.777-11.323zM12.017 9.41c0 2.079 1.754 3.765 3.916 3.765s3.915-1.687 3.915-3.765-1.754-3.764-3.915-3.764c-2.163 0-3.916 1.685-3.916 3.764z"></path>
</symbol>
<symbol id="icon-layers" viewBox="0 0 32 32">
<path d="M15.832 10.105h0.337v1.516h-0.337zM15.832 20.379h0.337v1.516h-0.337zM10.105 16.168v-0.337h1.516v0.337zM20.379 16.168v-0.337h1.516v0.337z"></path>
<path stroke-width="1.0105" stroke-miterlimit="20" stroke-linecap="butt" stroke-linejoin="miter" d="M15.832 10.105h0.337v1.516h-0.337zM15.832 20.379h0.337v1.516h-0.337zM10.105 16.168v-0.337h1.516v0.337zM20.379 16.168v-0.337h1.516v0.337z"></path>
<path d="M12.968 16.168v-0.337h2.863v-3.874h0.337v4.211z"></path>
<path stroke-width="1.0105" stroke-miterlimit="20" stroke-linecap="butt" stroke-linejoin="miter" d="M12.968 16.168v-0.337h2.863v-3.874h0.337v4.211z"></path>
<path d="M16.004 15.411c0.326 0 0.589 0.264 0.589 0.589s-0.264 0.589-0.589 0.589v0c-0.326 0-0.589-0.264-0.589-0.589s0.264-0.589 0.589-0.589v0z"></path>
<path stroke-width="1.0105" stroke-miterlimit="20" stroke-linecap="butt" stroke-linejoin="miter" d="M16.004 15.411c0.326 0 0.589 0.264 0.589 0.589s-0.264 0.589-0.589 0.589v0c-0.326 0-0.589-0.264-0.589-0.589s0.264-0.589 0.589-0.589v0z"></path>
</symbol>
<symbol id="icon-Group_2" viewBox="0 0 32 32">
<path stroke-width="1.0667" stroke-miterlimit="20" stroke-linecap="butt" stroke-linejoin="miter" d="M17.8 11.188l3.167 3.147c0.225 0.223 0.364 0.532 0.364 0.874s-0.139 0.651-0.364 0.874l-0 0-4.838 4.808c-0.169 0.169-0.387 0.289-0.631 0.338l-0.008 0.001c-0.147 0.066-0.318 0.104-0.498 0.104-0.005 0-0.010-0-0.015-0l-3.016-0.028c-0.694-0.006-1.262-0.571-1.268-1.26l-0.028-2.998c-0-0.004-0-0.010-0-0.015 0-0.387 0.18-0.732 0.462-0.955l0.002-0.002c0.023-0.027 0.048-0.054 0.073-0.079l4.838-4.808c0.226-0.224 0.537-0.362 0.88-0.362s0.654 0.138 0.88 0.362l-0-0zM12.427 18.27c-0.158 0.156-0.255 0.373-0.255 0.612s0.098 0.456 0.255 0.612l0 0c0.158 0.157 0.376 0.253 0.616 0.253s0.458-0.097 0.616-0.253l-0 0c0.158-0.156 0.255-0.373 0.255-0.612s-0.098-0.456-0.255-0.612l-0-0c-0.158-0.157-0.376-0.253-0.616-0.253s-0.458 0.097-0.616 0.253l0-0z"></path>
<path stroke-width="1.0667" stroke-miterlimit="20" stroke-linecap="butt" stroke-linejoin="miter" d="M13.372 19.97v0s-1.99-1.793-1.99-5.563 0.871-4.451 1.244-4.451c0.373 0 1.057 0.742 1.12 3.833"></path>
</symbol>
<symbol id="icon-layers1" viewBox="0 0 32 32">
<path d="M15.171 16.872h0.373v6.63h-0.373z"></path>
<path stroke-width="1.0847" stroke-miterlimit="20" stroke-linecap="butt" stroke-linejoin="miter" d="M14.539 14.759c0.118 0.116 0.208 0.259 0.261 0.419l0.002 0.007c0.143-0.075 0.312-0.119 0.492-0.119 0.001 0 0.001 0 0.002 0h-0c0.178 0 0.345 0.043 0.492 0.118 0.055-0.168 0.146-0.312 0.264-0.428l0-0c0.118-0.116 0.263-0.206 0.425-0.257l0.008-0.002c-0.076-0.141-0.121-0.308-0.121-0.486 0-0 0-0.001 0-0.001v0c0-0.174 0.043-0.338 0.119-0.483-0.169-0.054-0.313-0.143-0.43-0.259l0 0c-0.118-0.116-0.209-0.26-0.262-0.421l-0.002-0.007c-0.143 0.074-0.311 0.118-0.49 0.118-0.001 0-0.001 0-0.002 0h0c-0.001 0-0.001 0-0.002 0-0.18 0-0.349-0.044-0.498-0.122l0.006 0.003c-0.055 0.168-0.146 0.31-0.263 0.426l-0 0c-0.118 0.117-0.264 0.207-0.427 0.258l-0.008 0.002c0.076 0.145 0.12 0.31 0.12 0.485 0 0.176-0.044 0.343-0.121 0.489 0.171 0.054 0.318 0.143 0.437 0.261l-0-0zM13.025 11.773c0.338-0.334 0.847-0.397 1.25-0.19 0.137-0.426 0.542-0.735 1.020-0.735s0.884 0.31 1.021 0.737c0.403-0.206 0.911-0.142 1.249 0.191 0.193 0.19 0.313 0.454 0.313 0.746 0 0.177-0.044 0.343-0.121 0.489l0.003-0.006c0.431 0.136 0.744 0.534 0.744 1.005s-0.313 0.87-0.746 1.005c0.076 0.141 0.12 0.309 0.12 0.487 0 0.292-0.12 0.556-0.313 0.746l-0 0c-0.338 0.333-0.846 0.397-1.248 0.191-0.137 0.427-0.542 0.737-1.021 0.737s-0.882-0.309-1.020-0.735c-0.403 0.207-0.912 0.144-1.251-0.19-0.194-0.19-0.313-0.454-0.313-0.746 0-0.179 0.045-0.347 0.124-0.494l-0.003 0.006c-0.434-0.134-0.75-0.534-0.75-1.007s0.314-0.871 0.748-1.006c-0.075-0.141-0.119-0.308-0.119-0.485 0-0.292 0.12-0.556 0.313-0.746l0-0z"></path>
<path stroke-width="1.0847" stroke-miterlimit="20" stroke-linecap="butt" stroke-linejoin="miter" d="M15.293 12.112c1.063 0 1.925 0.85 1.925 1.898s-0.862 1.899-1.925 1.899-1.925-0.85-1.925-1.899 0.862-1.899 1.925-1.899z"></path>
<path stroke-width="1.0847" stroke-miterlimit="20" stroke-linecap="butt" stroke-linejoin="miter" d="M15.452 21.097v0l-0.189-0.189 2.521-2.5 0.189 0.189z"></path>
<path stroke-width="1.0847" stroke-miterlimit="20" stroke-linecap="butt" stroke-linejoin="miter" d="M15.481 20.812v0l-0.189 0.315-3.152-3.125 0.189-0.315z"></path>
<path stroke-width="1.0847" stroke-miterlimit="20" stroke-linecap="butt" stroke-linejoin="miter" d="M20.429 16.262v0s-0.178 2.607-0.947 3.37c-0.769 0.763-1.942 0.837-2.619 0.166s-0.602-1.833 0.167-2.596c0.769-0.763 3.399-0.939 3.399-0.939z"></path>
<path stroke-width="1.0847" stroke-miterlimit="20" stroke-linecap="butt" stroke-linejoin="miter" d="M11.57 17.428v0s0.13 1.9 0.694 2.456c0.564 0.556 1.422 0.61 1.918 0.121s0.441-1.336-0.122-1.892-2.489-0.684-2.489-0.684z"></path>
</symbol>
<symbol id="icon-leaf" viewBox="0 0 32 32">
<path stroke-width="1.0608" stroke-miterlimit="20" stroke-linecap="butt" stroke-linejoin="miter" d="M12.161 19.579c-1.72-1.72-1.72-4.51 0-6.23 2.738-2.74 8.966-2.741 8.966-2.741v0s-0.001 6.231-2.74 8.972c-1.72 1.72-4.507 1.72-6.227 0z"></path>
<path stroke-width="1.0608" stroke-miterlimit="20" stroke-linecap="butt" stroke-linejoin="miter" d="M11.392 22.559s-1.040-8.342 9.605-11.821"></path>
<path stroke-width="1.0608" stroke-miterlimit="20" stroke-linecap="butt" stroke-linejoin="miter" d="M12.431 18.272v-0.13h-0.26v-3.377h0.26v3.248h5.062v0.26zM13.988 15.414v-0.13h-0.13v-2.468h0.26v2.338h4.413v0.26zM16.844 13.076v-0.13h-0.13v-1.169h0.26v1.039h2.726v0.26z"></path>
</symbol>
</defs>
</svg>
